<?xml version="1.0" encoding="UTF-8" standalone="no"?>
<!-- Generator: Adobe Illustrator 22.0.1, SVG Export Plug-In . SVG Version: 6.00 Build 0)  -->

<svg
   version="1.1"
   id="Layer_1"
   x="0px"
   y="0px"
   viewBox="0 0 64 64"
   enable-background="new 0 0 16 16"
   xml:space="preserve"
   sodipodi:docname="qms_logo.svg"
   width="64"
   height="64"
   inkscape:version="1.4 (e7c3feb100, 2024-10-09)"
   xmlns:inkscape="http://www.inkscape.org/namespaces/inkscape"
   xmlns:sodipodi="http://sodipodi.sourceforge.net/DTD/sodipodi-0.dtd"
   xmlns="http://www.w3.org/2000/svg"
   xmlns:svg="http://www.w3.org/2000/svg"><defs
   id="defs3" /><sodipodi:namedview
   id="namedview3"
   pagecolor="#505050"
   bordercolor="#eeeeee"
   borderopacity="1"
   inkscape:showpageshadow="0"
   inkscape:pageopacity="0"
   inkscape:pagecheckerboard="0"
   inkscape:deskcolor="#d1d1d1"
   inkscape:zoom="5.34375"
   inkscape:cx="20.959064"
   inkscape:cy="35.836257"
   inkscape:window-width="1920"
   inkscape:window-height="1010"
   inkscape:window-x="0"
   inkscape:window-y="0"
   inkscape:window-maximized="1"
   inkscape:current-layer="Layer_1" />
<path
   id="path3_15_"
   fill="#31b7da"
   d="m 64.005,48.692 c 0,1.964 -1.248,4.184 -3.56,5.06 -2.308,0.88 -22.416,8.812 -25.14,9.62 -2.724,0.808 -3.804,0.864 -6.048,0 C 27.013,62.508 5.445,54.724 3.565,53.752 1.685,52.78 0.005,50.656 0.005,48.692 V 3.556 C 0.005,1.592 1.597,0 3.561,0 h 56.888 c 1.964,0 3.56,1.592 3.56,3.556 z"
   style="stroke-width:1" />
<path
   fill="#ffffff"
   d="M 51.985,12 H 33.777 c -1.028,0 -2.02,-0.396 -2.764,-1.108 L 29.145,9.108 C 28.401,8.396 27.409,8 26.381,8 H 9.985 c -1.104,0 -2,0.896 -2,2 v 6 h 48 c 0,-2.208 -1.792,-4 -4,-4 z"
   id="path1"
   style="stroke-width:1" />
<g
   id="g3"
   transform="matrix(4,0,0,4,-0.015,0)"
   style="stroke-width:0.25">
	<path
   fill="#ffffff"
   d="M 5.311,7.578 C 5.236,7.484 5.143,7.411 5.032,7.359 4.921,7.307 4.797,7.282 4.659,7.282 4.518,7.282 4.393,7.308 4.284,7.361 4.175,7.414 4.083,7.488 4.008,7.582 3.932,7.677 3.874,7.791 3.835,7.923 3.794,8.058 3.774,8.205 3.774,8.365 c 0,0.164 0.02,0.311 0.06,0.442 0.04,0.131 0.098,0.244 0.173,0.339 C 4.082,9.24 4.174,9.314 4.283,9.365 4.392,9.416 4.517,9.442 4.658,9.442 4.796,9.442 4.92,9.417 5.031,9.365 5.142,9.314 5.235,9.241 5.311,9.146 5.386,9.051 5.444,8.938 5.484,8.807 5.524,8.676 5.544,8.528 5.544,8.365 5.544,8.202 5.524,8.054 5.484,7.92 5.444,7.787 5.386,7.673 5.311,7.578 Z"
   id="path2"
   style="stroke-width:0.25" />
	<path
   fill="#ffffff"
   d="m 2,5 v 6.5 C 2,11.776 2.224,12 2.5,12 h 11 C 13.776,12 14,11.776 14,11.5 V 5 Z M 6.232,8.998 C 6.174,9.185 6.094,9.35 5.989,9.491 5.885,9.632 5.761,9.749 5.616,9.842 5.472,9.936 5.313,10.002 5.14,10.044 c 0.016,0.064 0.051,0.116 0.106,0.156 0.054,0.04 0.124,0.073 0.206,0.099 0.084,0.025 0.18,0.044 0.291,0.058 0.111,0.013 0.23,0.024 0.359,0.034 L 5.948,10.94 C 5.698,10.931 5.484,10.906 5.306,10.866 5.128,10.826 4.977,10.771 4.854,10.7 4.73,10.629 4.633,10.544 4.56,10.441 4.488,10.338 4.433,10.22 4.394,10.085 4.195,10.059 4.01,10.004 3.84,9.919 3.67,9.835 3.523,9.72 3.398,9.575 3.273,9.43 3.175,9.257 3.104,9.055 3.035,8.851 3,8.621 3,8.365 3,8.08 3.045,7.828 3.135,7.612 3.225,7.396 3.346,7.213 3.498,7.066 3.65,6.919 3.826,6.808 4.027,6.735 4.228,6.661 4.439,6.624 4.66,6.624 c 0.228,0 0.442,0.036 0.644,0.111 0.202,0.074 0.379,0.184 0.529,0.331 0.151,0.148 0.27,0.33 0.357,0.546 0.086,0.216 0.129,0.467 0.129,0.753 0,0.234 -0.029,0.445 -0.087,0.633 z m 3.385,1.035 C 9.608,9.709 9.595,9.356 9.579,8.975 9.564,8.594 9.539,8.209 9.508,7.821 9.449,7.956 9.385,8.104 9.314,8.268 9.243,8.432 9.173,8.595 9.104,8.759 9.035,8.923 8.968,9.079 8.903,9.228 8.84,9.377 8.785,9.505 8.74,9.61 H 8.215 C 8.171,9.504 8.115,9.377 8.051,9.227 7.987,9.078 7.921,8.921 7.852,8.758 7.783,8.594 7.712,8.431 7.642,8.267 7.571,8.104 7.506,7.955 7.449,7.821 7.416,8.208 7.392,8.593 7.376,8.975 7.361,9.356 7.348,9.709 7.338,10.034 H 6.607 C 6.619,9.771 6.634,9.49 6.652,9.192 6.67,8.893 6.689,8.596 6.71,8.3 6.731,8.003 6.754,7.718 6.782,7.444 6.81,7.169 6.839,6.922 6.871,6.701 H 7.59 C 7.648,6.807 7.714,6.937 7.789,7.093 7.864,7.249 7.943,7.417 8.025,7.598 8.107,7.779 8.189,7.964 8.269,8.154 8.349,8.343 8.424,8.521 8.495,8.688 8.566,8.522 8.641,8.343 8.721,8.154 8.801,7.965 8.882,7.78 8.964,7.598 9.046,7.416 9.125,7.248 9.2,7.093 9.276,6.938 9.344,6.807 9.401,6.701 h 0.682 c 0.033,0.221 0.062,0.469 0.089,0.743 0.027,0.274 0.051,0.559 0.073,0.856 0.02,0.296 0.04,0.594 0.058,0.892 0.018,0.298 0.033,0.579 0.046,0.841 z m 3.056,-0.189 c -0.218,0.172 -0.546,0.258 -0.986,0.258 -0.148,0 -0.281,-0.009 -0.399,-0.026 C 11.17,10.059 11.064,10.037 10.973,10.011 10.881,9.985 10.803,9.957 10.737,9.929 10.671,9.901 10.616,9.873 10.571,9.848 l 0.212,-0.597 c 0.099,0.054 0.222,0.104 0.368,0.147 0.146,0.043 0.324,0.065 0.536,0.065 0.106,0 0.193,-0.009 0.262,-0.026 0.069,-0.018 0.124,-0.041 0.166,-0.072 0.041,-0.031 0.071,-0.066 0.086,-0.109 0.016,-0.041 0.024,-0.088 0.024,-0.14 0,-0.109 -0.051,-0.199 -0.154,-0.271 C 11.968,8.773 11.792,8.695 11.542,8.611 11.433,8.572 11.323,8.529 11.215,8.479 11.106,8.43 11.009,8.367 10.921,8.291 10.835,8.215 10.764,8.125 10.71,8.017 10.656,7.91 10.628,7.779 10.628,7.625 c 0,-0.154 0.029,-0.293 0.087,-0.416 0.058,-0.124 0.139,-0.229 0.246,-0.315 0.106,-0.086 0.234,-0.153 0.384,-0.199 0.151,-0.046 0.321,-0.069 0.51,-0.069 0.225,0 0.419,0.024 0.582,0.072 0.163,0.048 0.299,0.101 0.404,0.159 L 12.625,7.448 C 12.532,7.4 12.429,7.357 12.315,7.321 12.201,7.285 12.064,7.266 11.904,7.266 c -0.18,0 -0.309,0.025 -0.387,0.074 -0.078,0.047 -0.117,0.123 -0.117,0.226 0,0.061 0.015,0.112 0.044,0.154 0.029,0.042 0.07,0.079 0.123,0.113 0.053,0.034 0.114,0.064 0.183,0.091 0.069,0.027 0.145,0.055 0.229,0.084 0.173,0.064 0.324,0.128 0.452,0.19 0.129,0.062 0.235,0.135 0.32,0.219 0.085,0.084 0.149,0.181 0.19,0.294 C 12.979,8.823 13,8.96 13,9.12 13,9.431 12.891,9.673 12.673,9.844 Z"
   id="path3"
   style="stroke-width:0.25" />
</g>
</svg>
