<?xml version="1.0" encoding="UTF-8" standalone="no"?>
<!-- Created with Inkscape (http://www.inkscape.org/) -->

<svg
   xmlns:dc="http://purl.org/dc/elements/1.1/"
   xmlns:cc="http://creativecommons.org/ns#"
   xmlns:rdf="http://www.w3.org/1999/02/22-rdf-syntax-ns#"
   xmlns:svg="http://www.w3.org/2000/svg"
   xmlns="http://www.w3.org/2000/svg"
   xmlns:sodipodi="http://sodipodi.sourceforge.net/DTD/sodipodi-0.dtd"
   xmlns:inkscape="http://www.inkscape.org/namespaces/inkscape"
   id="svg2"
   version="1.1"
   inkscape:version="0.48.4 r9939"
   width="256"
   height="256"
   xml:space="preserve"
   sodipodi:docname="mapquest.svg"><metadata
     id="metadata8"><rdf:RDF><cc:Work
         rdf:about=""><dc:format>image/svg+xml</dc:format><dc:type
           rdf:resource="http://purl.org/dc/dcmitype/StillImage" /><dc:title></dc:title></cc:Work></rdf:RDF></metadata><defs
     id="defs6" /><sodipodi:namedview
     pagecolor="#ffffff"
     bordercolor="#666666"
     borderopacity="1"
     objecttolerance="10"
     gridtolerance="10"
     guidetolerance="10"
     inkscape:pageopacity="0"
     inkscape:pageshadow="2"
     inkscape:window-width="640"
     inkscape:window-height="480"
     id="namedview4"
     showgrid="false"
     inkscape:zoom="0.85129406"
     inkscape:cx="138.6125"
     inkscape:cy="138.6125"
     inkscape:window-x="49"
     inkscape:window-y="24"
     inkscape:window-maximized="0"
     inkscape:current-layer="g10" /><g
     id="g10"
     inkscape:groupmode="layer"
     inkscape:label="ink_ext_XXXXXX"
     transform="matrix(1.25,0,0,-1.25,0,255.99999)"><g
       id="g12"
       transform="matrix(0.08983028,0,0,0.08983028,3.7589829,3.7589829)"><path
         d="M 2217.75,369.621 C 2217.75,165.488 2052.27,0 1848.13,0 L 369.625,0 C 165.48,0 0,165.488 0,369.621 L 0,1848.12 c 0,204.14 165.48,369.63 369.625,369.63 l 1478.505,0 c 204.14,0 369.62,-165.49 369.62,-369.63 l 0,-1478.499"
         style="fill:#7fcc2a;fill-opacity:1;fill-rule:nonzero;stroke:none"
         id="path14"
         inkscape:connector-curvature="0" /><path
         d="m 1364.05,536.332 c -16.36,12.879 -26.92,33.109 -26.92,56.348 l -0.2,337.34 c 0,209.5 -95.98,335.97 -342.989,328.44 -112.109,-3.42 -215.91,-78.89 -215.91,-78.89 -12.586,-7.69 -22.914,0 -22.914,0 0,0 -103.722,75.47 -215.808,78.89 C 292.207,1265.99 196.34,1139.52 196.34,930.02 l -0.141,-363.79 c 0,-35.582 10.184,-65.57 52.664,-65.57 l 250.367,0 c 9.54,0 17.254,7.809 17.254,17.301 0,10.758 -9.086,15.059 -13.347,18.371 -16.324,12.879 -26.903,33.488 -26.903,56.656 l -0.089,331.742 c 0.609,35.391 38.449,61.629 78.621,61.79 40.015,-0.161 77.968,-26.399 78.609,-61.79 l -0.469,-358.5 c 0,-35.582 10.231,-65.57 52.664,-65.57 l 237.668,0 c 9.528,0 17.254,7.809 17.254,17.301 0,10.758 -9.07,15.059 -13.351,18.371 -16.336,12.879 -26.911,33.488 -26.911,56.656 l -0.234,332.211 c 0.594,35.391 38.449,61.16 78.516,61.321 40.138,-0.161 77.908,-25.93 78.568,-61.321 l 0,-358.969 c 0,-35.582 10.21,-65.57 52.66,-65.57 l 250.38,0 c 9.55,0 17.3,7.809 17.3,17.301 0,10.758 -9.12,15.059 -13.37,18.371"
         style="fill:#ffffff;fill-opacity:1;fill-rule:nonzero;stroke:none"
         id="path16"
         inkscape:connector-curvature="0" /><path
         d="m 1718.78,1349.12 c -0.34,-39.4 -39.33,-69.03 -85.28,-69.16 -46.11,0.13 -85.09,29.76 -85.4,69.16 l 0,49.91 c 0.25,39.68 39.29,69.19 85.4,69.29 45.91,-0.1 84.97,-29.61 85.28,-69.29 l 0,-49.91 z m 289.4,-229.35 c 0,0 -29.58,30.4 -58.06,56.54 28.48,53.14 41.57,119.23 41.57,197.8 -1.15,220.91 -97.61,341.85 -358.31,342.98 -260.62,-1.13 -357.1,-122.07 -358.23,-342.98 1.13,-220.66 97.71,-343.18 358.23,-344.23 78.03,-0.38 141.43,11.52 192.1,33.49 27.12,-30.06 62.1,-64.159 62.1,-64.159 26.37,-26.34 74.91,-20.871 108.14,12.489 33.42,33.33 38.83,81.77 12.46,108.07"
         style="fill:#ffffff;fill-opacity:1;fill-rule:nonzero;stroke:none"
         id="path18"
         inkscape:connector-curvature="0" /><path
         d="m 1559.93,542.121 10.1,0 c 4.83,0 8.12,0.719 9.88,2.149 1.76,1.449 2.64,3.351 2.64,5.73 0,1.52 -0.43,2.891 -1.27,4.09 -0.85,1.211 -2.02,2.109 -3.53,2.699 -1.5,0.59 -4.28,0.891 -8.36,0.891 l -9.46,0 0,-15.559 z m -8.32,-29.039 0,51.578 17.73,0 c 6.05,0 10.44,-0.461 13.14,-1.422 2.72,-0.949 4.87,-2.617 6.48,-4.988 1.62,-2.379 2.42,-4.879 2.42,-7.559 0,-3.769 -1.35,-7.05 -4.04,-9.839 -2.68,-2.801 -6.26,-4.372 -10.7,-4.704 1.82,-0.757 3.28,-1.679 4.39,-2.738 2.07,-2.031 4.6,-5.441 7.61,-10.219 l 6.29,-10.109 -10.16,0 -4.57,8.137 c -3.61,6.39 -6.51,10.39 -8.71,12 -1.52,1.191 -3.75,1.781 -6.67,1.781 l -4.89,0 0,-21.918 -8.32,0 z m 21.03,66.52 c -6.74,0 -13.29,-1.731 -19.66,-5.18 -6.38,-3.461 -11.37,-8.391 -14.96,-14.801 -3.61,-6.422 -5.4,-13.101 -5.4,-20.043 0,-6.906 1.76,-13.527 5.3,-19.859 3.54,-6.328 8.48,-11.27 14.83,-14.797 6.35,-3.543 12.98,-5.301 19.89,-5.301 6.9,0 13.53,1.758 19.88,5.301 6.36,3.527 11.29,8.469 14.8,14.797 3.52,6.332 5.28,12.953 5.28,19.859 0,6.942 -1.79,13.621 -5.37,20.043 -3.58,6.41 -8.57,11.34 -14.96,14.801 -6.4,3.449 -12.94,5.18 -19.63,5.18 z m 0,7.937 c 8.04,0 15.9,-2.07 23.56,-6.199 7.67,-4.129 13.64,-10.039 17.92,-17.719 4.28,-7.691 6.42,-15.699 6.42,-24.043 0,-8.269 -2.11,-16.207 -6.32,-23.828 -4.22,-7.621 -10.13,-13.539 -17.73,-17.762 -7.6,-4.199 -15.55,-6.308 -23.85,-6.308 -8.3,0 -16.25,2.109 -23.86,6.308 -7.6,4.223 -13.52,10.141 -17.75,17.762 -4.24,7.621 -6.35,15.559 -6.35,23.828 0,8.344 2.15,16.352 6.44,24.043 4.3,7.68 10.29,13.59 17.95,17.719 7.66,4.129 15.52,6.199 23.57,6.199"
         style="fill:#ffffff;fill-opacity:1;fill-rule:nonzero;stroke:none"
         id="path20"
         inkscape:connector-curvature="0" /></g></g></svg>